<svg width="109" height="40" viewBox="0 0 109 40" fill="none" xmlns="http://www.w3.org/2000/svg">
<path d="M3.495 23.02H6.855V25H0.93V14.47H3.495V23.02ZM13.0584 25.105C12.0684 25.105 11.1584 24.875 10.3284 24.415C9.50844 23.955 8.85344 23.315 8.36344 22.495C7.88344 21.665 7.64344 20.735 7.64344 19.705C7.64344 18.675 7.88344 17.75 8.36344 16.93C8.85344 16.11 9.50844 15.47 10.3284 15.01C11.1584 14.55 12.0684 14.32 13.0584 14.32C14.0484 14.32 14.9534 14.55 15.7734 15.01C16.6034 15.47 17.2534 16.11 17.7234 16.93C18.2034 17.75 18.4434 18.675 18.4434 19.705C18.4434 20.735 18.2034 21.665 17.7234 22.495C17.2434 23.315 16.5934 23.955 15.7734 24.415C14.9534 24.875 14.0484 25.105 13.0584 25.105ZM13.0584 22.765C13.8984 22.765 14.5684 22.485 15.0684 21.925C15.5784 21.365 15.8334 20.625 15.8334 19.705C15.8334 18.775 15.5784 18.035 15.0684 17.485C14.5684 16.925 13.8984 16.645 13.0584 16.645C12.2084 16.645 11.5284 16.92 11.0184 17.47C10.5184 18.02 10.2684 18.765 10.2684 19.705C10.2684 20.635 10.5184 21.38 11.0184 21.94C11.5284 22.49 12.2084 22.765 13.0584 22.765ZM26.8604 17.8C26.6704 17.45 26.3954 17.185 26.0354 17.005C25.6854 16.815 25.2704 16.72 24.7904 16.72C23.9604 16.72 23.2954 16.995 22.7954 17.545C22.2954 18.085 22.0454 18.81 22.0454 19.72C22.0454 20.69 22.3054 21.45 22.8254 22C23.3554 22.54 24.0804 22.81 25.0004 22.81C25.6304 22.81 26.1604 22.65 26.5904 22.33C27.0304 22.01 27.3504 21.55 27.5504 20.95H24.2954V19.06H29.8754V21.445C29.6854 22.085 29.3604 22.68 28.9004 23.23C28.4504 23.78 27.8754 24.225 27.1754 24.565C26.4754 24.905 25.6854 25.075 24.8054 25.075C23.7654 25.075 22.8354 24.85 22.0154 24.4C21.2054 23.94 20.5704 23.305 20.1104 22.495C19.6604 21.685 19.4354 20.76 19.4354 19.72C19.4354 18.68 19.6604 17.755 20.1104 16.945C20.5704 16.125 21.2054 15.49 22.0154 15.04C22.8254 14.58 23.7504 14.35 24.7904 14.35C26.0504 14.35 27.1104 14.655 27.9704 15.265C28.8404 15.875 29.4154 16.72 29.6954 17.8H26.8604ZM36.2762 25.105C35.2862 25.105 34.3762 24.875 33.5462 24.415C32.7262 23.955 32.0712 23.315 31.5812 22.495C31.1012 21.665 30.8612 20.735 30.8612 19.705C30.8612 18.675 31.1012 17.75 31.5812 16.93C32.0712 16.11 32.7262 15.47 33.5462 15.01C34.3762 14.55 35.2862 14.32 36.2762 14.32C37.2662 14.32 38.1712 14.55 38.9912 15.01C39.8212 15.47 40.4712 16.11 40.9412 16.93C41.4212 17.75 41.6612 18.675 41.6612 19.705C41.6612 20.735 41.4212 21.665 40.9412 22.495C40.4612 23.315 39.8112 23.955 38.9912 24.415C38.1712 24.875 37.2662 25.105 36.2762 25.105ZM36.2762 22.765C37.1162 22.765 37.7862 22.485 38.2862 21.925C38.7962 21.365 39.0512 20.625 39.0512 19.705C39.0512 18.775 38.7962 18.035 38.2862 17.485C37.7862 16.925 37.1162 16.645 36.2762 16.645C35.4262 16.645 34.7462 16.92 34.2362 17.47C33.7362 18.02 33.4862 18.765 33.4862 19.705C33.4862 20.635 33.7362 21.38 34.2362 21.94C34.7462 22.49 35.4262 22.765 36.2762 22.765ZM50.0769 25.105C49.3069 25.105 48.6169 24.98 48.0069 24.73C47.3969 24.48 46.9069 24.11 46.5369 23.62C46.1769 23.13 45.9869 22.54 45.9669 21.85H48.6969C48.7369 22.24 48.8719 22.54 49.1019 22.75C49.3319 22.95 49.6319 23.05 50.0019 23.05C50.3819 23.05 50.6819 22.965 50.9019 22.795C51.1219 22.615 51.2319 22.37 51.2319 22.06C51.2319 21.8 51.1419 21.585 50.9619 21.415C50.7919 21.245 50.5769 21.105 50.3169 20.995C50.0669 20.885 49.7069 20.76 49.2369 20.62C48.5569 20.41 48.0019 20.2 47.5719 19.99C47.1419 19.78 46.7719 19.47 46.4619 19.06C46.1519 18.65 45.9969 18.115 45.9969 17.455C45.9969 16.475 46.3519 15.71 47.0619 15.16C47.7719 14.6 48.6969 14.32 49.8369 14.32C50.9969 14.32 51.9319 14.6 52.6419 15.16C53.3519 15.71 53.7319 16.48 53.7819 17.47H51.0069C50.9869 17.13 50.8619 16.865 50.6319 16.675C50.4019 16.475 50.1069 16.375 49.7469 16.375C49.4369 16.375 49.1869 16.46 48.9969 16.63C48.8069 16.79 48.7119 17.025 48.7119 17.335C48.7119 17.675 48.8719 17.94 49.1919 18.13C49.5119 18.32 50.0119 18.525 50.6919 18.745C51.3719 18.975 51.9219 19.195 52.3419 19.405C52.7719 19.615 53.1419 19.92 53.4519 20.32C53.7619 20.72 53.9169 21.235 53.9169 21.865C53.9169 22.465 53.7619 23.01 53.4519 23.5C53.1519 23.99 52.7119 24.38 52.1319 24.67C51.5519 24.96 50.8669 25.105 50.0769 25.105ZM62.0504 23.14H58.1204L57.4904 25H54.8054L58.6154 14.47H61.5854L65.3954 25H62.6804L62.0504 23.14ZM61.3904 21.16L60.0854 17.305L58.7954 21.16H61.3904ZM78.48 14.47V25H75.915V18.685L73.56 25H71.49L69.12 18.67V25H66.555V14.47H69.585L72.54 21.76L75.465 14.47H78.48ZM88.3495 17.86C88.3495 18.47 88.2095 19.03 87.9295 19.54C87.6495 20.04 87.2195 20.445 86.6395 20.755C86.0595 21.065 85.3395 21.22 84.4795 21.22H82.8895V25H80.3245V14.47H84.4795C85.3195 14.47 86.0295 14.615 86.6095 14.905C87.1895 15.195 87.6245 15.595 87.9145 16.105C88.2045 16.615 88.3495 17.2 88.3495 17.86ZM84.2845 19.18C84.7745 19.18 85.1395 19.065 85.3795 18.835C85.6195 18.605 85.7395 18.28 85.7395 17.86C85.7395 17.44 85.6195 17.115 85.3795 16.885C85.1395 16.655 84.7745 16.54 84.2845 16.54H82.8895V19.18H84.2845ZM92.2499 23.02H95.6099V25H89.6849V14.47H92.2499V23.02ZM99.3983 16.525V18.655H102.833V20.635H99.3983V22.945H103.283V25H96.8333V14.47H103.283V16.525H99.3983Z" fill="white"/>
</svg>
